<svg xmlns="http://www.w3.org/2000/svg" width="18.799" height="22" viewBox="0 0 18.799 22">
  <path id="Exclusion_1" data-name="Exclusion 1" d="M9.729,22H8.952a1.174,1.174,0,0,1-1.116-.75l-.6-1.694c-.519-1.58-1.768-2.52-3.09-3.516C2.108,14.506,0,12.918,0,8.8,0,3.948,4.217,0,9.4,0s9.4,3.948,9.4,8.8c0,4.14-2.137,5.728-4.2,7.264-1.332.99-2.59,1.925-3.152,3.493l-.6,1.694A1.172,1.172,0,0,1,9.729,22ZM9.4,2.2A6.844,6.844,0,0,0,2.35,8.8c0,3.117,1.462,4.168,3.313,5.5A10.3,10.3,0,0,1,9.4,18.4a10.386,10.386,0,0,1,3.736-4.1c1.852-1.331,3.314-2.383,3.314-5.5A6.844,6.844,0,0,0,9.4,2.2Zm0,8.8A2.281,2.281,0,0,1,7.05,8.8,2.282,2.282,0,0,1,9.4,6.6a2.281,2.281,0,0,1,2.349,2.2A2.28,2.28,0,0,1,9.4,11Z" transform="translate(0 0)" fill="#6c3a79"/>
</svg>
