<svg id="Icons_Email" data-name="Icons/Email" xmlns="http://www.w3.org/2000/svg" width="28" height="28" viewBox="0 0 28 28">
  <path id="Path" d="M16.332,21A11.747,11.747,0,0,1,10.8,19.612l-.525-.292a21,21,0,0,1-8.551-8.551l-.292-.525A11.747,11.747,0,0,1,0,4.668V3.887A2.333,2.333,0,0,1,.688,2.23L2.66.259A.875.875,0,0,1,4.036.434l2.625,4.5a1.167,1.167,0,0,1-.187,1.412l-2.2,2.2a.583.583,0,0,0-.1.688l.408.77a15.783,15.783,0,0,0,6.416,6.4l.77.42a.583.583,0,0,0,.688-.1l2.2-2.2a1.167,1.167,0,0,1,1.412-.187l4.5,2.625a.875.875,0,0,1,.175,1.377L18.77,20.312A2.333,2.333,0,0,1,17.113,21Z" transform="translate(3.5 3.5)" fill="#6c3a79"/>
</svg>
